<svg xmlns="http://www.w3.org/2000/svg" viewBox="0 0 1920 1024" preserveAspectRatio="xMidYMid slice">
  <defs>
    <linearGradient id="sky" x1="0" y1="0" x2="0" y2="1">
      <stop offset="0" stop-color="#0a1322"/>
      <stop offset="0.55" stop-color="#142540"/>
      <stop offset="0.72" stop-color="#2a3550"/>
      <stop offset="0.78" stop-color="#3a3a4a"/>
    </linearGradient>
    <linearGradient id="sea" x1="0" y1="0" x2="0" y2="1">
      <stop offset="0" stop-color="#18253b"/>
      <stop offset="1" stop-color="#0a1220"/>
    </linearGradient>
    <radialGradient id="glow" cx="1490" cy="355" r="420" gradientUnits="userSpaceOnUse">
      <stop offset="0" stop-color="#ffe2a0" stop-opacity=".85"/>
      <stop offset=".08" stop-color="#f1c06a" stop-opacity=".55"/>
      <stop offset=".35" stop-color="#d9a441" stop-opacity=".16"/>
      <stop offset="1" stop-color="#d9a441" stop-opacity="0"/>
    </radialGradient>
    <radialGradient id="horizonGlow" cx="1490" cy="800" r="700" gradientUnits="userSpaceOnUse">
      <stop offset="0" stop-color="#d9a441" stop-opacity=".22"/>
      <stop offset="1" stop-color="#d9a441" stop-opacity="0"/>
    </radialGradient>
    <linearGradient id="reflect" x1="0" y1="0" x2="0" y2="1">
      <stop offset="0" stop-color="#f1c06a" stop-opacity=".55"/>
      <stop offset="1" stop-color="#f1c06a" stop-opacity="0"/>
    </linearGradient>
    <linearGradient id="tower" x1="0" y1="0" x2="1" y2="0">
      <stop offset="0" stop-color="#1c2638"/>
      <stop offset=".55" stop-color="#2c3850"/>
      <stop offset="1" stop-color="#121a28"/>
    </linearGradient>
    <linearGradient id="rock" x1="0" y1="0" x2="0" y2="1">
      <stop offset="0" stop-color="#141c2a"/>
      <stop offset="1" stop-color="#070c15"/>
    </linearGradient>
  </defs>

  <rect width="1920" height="1024" fill="url(#sky)"/>

  <g fill="#f6ead2">
    <circle cx="120" cy="90" r="1.4" opacity=".7"/><circle cx="260" cy="180" r="1" opacity=".5"/>
    <circle cx="420" cy="70" r="1.6" opacity=".8"/><circle cx="560" cy="220" r="1" opacity=".45"/>
    <circle cx="700" cy="120" r="1.2" opacity=".6"/><circle cx="860" cy="60" r="1" opacity=".5"/>
    <circle cx="980" cy="200" r="1.5" opacity=".7"/><circle cx="1100" cy="110" r="1" opacity=".5"/>
    <circle cx="1240" cy="50" r="1.3" opacity=".65"/><circle cx="1700" cy="90" r="1.4" opacity=".7"/>
    <circle cx="1820" cy="200" r="1" opacity=".5"/><circle cx="1620" cy="230" r="1" opacity=".4"/>
    <circle cx="340" cy="320" r="1" opacity=".35"/><circle cx="780" cy="300" r="1.1" opacity=".4"/>
    <circle cx="1180" cy="280" r="1" opacity=".35"/><circle cx="60" cy="260" r="1.2" opacity=".5"/>
  </g>

  <rect width="1920" height="1024" fill="url(#horizonGlow)"/>

  <rect y="770" width="1920" height="254" fill="url(#sea)"/>
  <rect y="768" width="1920" height="3" fill="#d9a441" opacity=".18"/>

  <g stroke="#f6ead2" stroke-linecap="round" opacity=".08" stroke-width="2">
    <path d="M80 820h220M420 850h300M900 830h180M160 900h260M620 930h340M1100 880h200M60 980h300M760 990h280"/>
  </g>

  <path d="M1458 772 L1520 772 L1610 1024 L1368 1024 Z" fill="url(#reflect)" opacity=".5"/>
  <g stroke="#f1c06a" stroke-linecap="round" opacity=".35" stroke-width="3">
    <path d="M1440 800h100M1420 830h140M1400 865h180M1385 905h210M1370 950h240"/>
  </g>

  <path d="M1250 790 C1300 720 1380 700 1440 705 C1520 690 1600 710 1680 750 C1760 770 1820 790 1920 800 L1920 1024 L1210 1024 Z" fill="url(#rock)"/>

  <circle cx="1490" cy="355" r="420" fill="url(#glow)"/>

  <path d="M1452 720 L1470 400 L1510 400 L1528 720 Z" fill="url(#tower)"/>
  <g fill="#e9dcc0" opacity=".9">
    <path d="M1462 560 L1518 560 L1520 590 L1460 590 Z"/>
    <path d="M1466 470 L1514 470 L1516 495 L1464 495 Z"/>
  </g>
  <rect x="1462" y="388" width="56" height="12" fill="#121a28"/>
  <rect x="1470" y="340" width="40" height="48" fill="#ffe7b0"/>
  <path d="M1470 340 h40 M1480 340 v48 M1490 340 v48 M1500 340 v48" stroke="#2c3850" stroke-width="2"/>
  <path d="M1462 340 L1490 312 L1518 340 Z" fill="#121a28"/>
  <rect x="1488" y="300" width="4" height="14" fill="#121a28"/>
  <circle cx="1490" cy="364" r="22" fill="#fff4d6" opacity=".9"/>
  <rect x="1482" y="680" width="16" height="40" rx="2" fill="#0d1420"/>
</svg>
